0
SECTION
2
HEADER
9
$INSUNITS
70
4
9
$ACADVER
1
AC1014
9
$HANDSEED
5
FFFF
0
ENDSEC
0
SECTION
2
TABLES
0
TABLE
2
VPORT
5
8
100
AcDbSymbolTable
0
ENDTAB
0
TABLE
2
LTYPE
5
5
100
AcDbSymbolTable
0
LTYPE
5
14
100
AcDbSymbolTableRecord
100
AcDbLinetypeTableRecord
2
BYBLOCK
70
0
0
LTYPE
5
15
100
AcDbSymbolTableRecord
100
AcDbLinetypeTableRecord
2
BYLAYER
70
0
0
LTYPE
5
16
100
AcDbSymbolTableRecord
100
AcDbLinetypeTableRecord
2
DASHED
70
0
3
Dashed __ __ __ __ __ __ __ __ __ __ __ __ __ _
72
65
73
2
40
0.75
49
0.5
74
0
49
-0.25
74
0
0
ENDTAB
0
TABLE
2
LAYER
5
2
100
AcDbSymbolTable
70
2
0
LAYER
5
50
100
AcDbSymbolTableRecord
100
AcDbLayerTableRecord
2
0
70
0
62
7
6
CONTINUOUS
0
ENDTAB
0
TABLE
2
STYLE
5
3
100
AcDbSymbolTable
70
1
0
STYLE
5
11
100
AcDbSymbolTableRecord
100
AcDbTextStyleTableRecord
2
STANDARD
70
0
0
ENDTAB
0
TABLE
2
VIEW
5
6
100
AcDbSymbolTable
70
0
0
ENDTAB
0
TABLE
2
UCS
5
7
100
AcDbSymbolTable
70
0
0
ENDTAB
0
TABLE
2
APPID
5
9
100
AcDbSymbolTable
70
2
0
APPID
5
12
100
AcDbSymbolTableRecord
100
AcDbRegAppTableRecord
2
ACAD
70
0
0
ENDTAB
0
TABLE
2
DIMSTYLE
5
A
100
AcDbSymbolTable
70
1
0
ENDTAB
0
TABLE
2
BLOCK_RECORD
5
1
100
AcDbSymbolTable
70
1
0
BLOCK_RECORD
5
1F
100
AcDbSymbolTableRecord
100
AcDbBlockTableRecord
2
*MODEL_SPACE
0
BLOCK_RECORD
5
1B
100
AcDbSymbolTableRecord
100
AcDbBlockTableRecord
2
*PAPER_SPACE
0
ENDTAB
0
ENDSEC
0
SECTION
2
BLOCKS
0
BLOCK
5
20
100
AcDbEntity
100
AcDbBlockBegin
2
*MODEL_SPACE
0
ENDBLK
5
21
100
AcDbEntity
100
AcDbBlockEnd
0
BLOCK
5
1C
100
AcDbEntity
100
AcDbBlockBegin
2
*PAPER_SPACE
0
ENDBLK
5
1D
100
AcDbEntity
100
AcDbBlockEnd
0
ENDSEC
0
SECTION
2
ENTITIES
0
CIRCLE
5
100
100
AcDbEntity
8
0
100
AcDbCircle
10
0
20
58.99999999999995
30
0
40
6.0000000000000009
210
0
220
0
230
1
0
LWPOLYLINE
5
101
100
AcDbEntity
8
0
100
AcDbPolyline
90
36
70
1
43
0.0
10
12.000000000000011
20
129
42
0.41421356237309537
10
10.000000000000016
20
127
10
10.000000000000009
20
110.99999999999994
42
-0.41421356237309553
10
8.0000000000000142
20
108.99999999999994
10
-7.9999999999999849
20
108.99999999999994
42
-0.41421356237309537
10
-9.9999999999999858
20
110.99999999999994
10
-9.9999999999999822
20
126.99999999999996
42
0.41421356237309598
10
-11.999999999999993
20
128.99999999999994
10
-81.33418715398841
20
128.99999999999994
42
0.0081588388997733963
10
-85.499999999999972
20
126.27747225851492
10
-85.500000000000028
20
115.99999999999994
10
-98.996212048744624
20
115.99999999999996
42
0.0021714145199553912
10
-100.00000000000001
20
115.13578939669455
10
-99.999999999999986
20
99.999999999999972
10
-103.99999999999997
20
99.999999999999972
10
-103.99999999999997
20
-100.00000000000003
10
-99.999999999999986
20
-100.00000000000006
10
-100.00000000000001
20
-115.13578939669455
42
0.0021714145199553912
10
-98.996212048744553
20
-116.00000000000006
10
-85.500000000000099
20
-116.00000000000003
10
-85.500000000000099
20
-126.27747225851482
42
0.0081588388997725463
10
-81.334187153988353
20
-129
10
81.334187153988296
20
-129.00000000000003
42
0.0081588388997733963
10
85.500000000000085
20
-126.27747225851486
10
85.5
20
-116.00000000000003
10
98.996212048744553
20
-116.00000000000003
42
0.0021714145199521959
10
99.999999999999929
20
-115.13578939669459
10
100.00000000000001
20
-100.00000000000003
10
104.00000000000003
20
-100.00000000000003
10
104.00000000000003
20
99.999999999999972
10
100.00000000000001
20
99.999999999999972
10
100.00000000000003
20
115.13578939669452
42
0.0021714145199521959
10
98.996212048744638
20
115.99999999999996
10
85.499999999999986
20
115.99999999999994
10
85.5
20
126.2774722585149
42
0.0081588388997733963
10
81.334187153988452
20
128.99999999999994
0
CIRCLE
5
102
100
AcDbEntity
8
0
100
AcDbCircle
10
85.000000000000014
20
-71.999999999999943
30
0
40
1.6499999999999915
210
0
220
0
230
1
0
CIRCLE
5
103
100
AcDbEntity
8
0
100
AcDbCircle
10
-84.999999999999915
20
-71.999999999999943
30
0
40
1.6499999999999915
210
0
220
0
230
1
0
CIRCLE
5
104
100
AcDbEntity
8
0
100
AcDbCircle
10
85.000000000000014
20
71.999999999999972
30
0
40
1.6499999999999915
210
0
220
0
230
1
0
CIRCLE
5
105
100
AcDbEntity
8
0
100
AcDbCircle
10
94.000000000000028
20
-42.000000000000057
30
0
40
1.6499999999999915
210
0
220
0
230
1
0
CIRCLE
5
106
100
AcDbEntity
8
0
100
AcDbCircle
10
-84.999999999999915
20
71.999999999999943
30
0
40
1.6499999999999915
210
0
220
0
230
1
0
CIRCLE
5
107
100
AcDbEntity
8
0
100
AcDbCircle
10
-27.999999999999986
20
42.999999999999957
30
0
40
1.6500000000000004
210
0
220
0
230
1
0
ENDSEC
0
SECTION
2
OBJECTS
0
DICTIONARY
5
C
100
AcDbDictionary
3
ACAD_GROUP
350
D
3
ACAD_MLINESTYLE
350
17
0
DICTIONARY
5
D
100
AcDbDictionary
0
DICTIONARY
5
1A
330
C
100
AcDbDictionary
0
DICTIONARY
5
17
100
AcDbDictionary
0
ENDSEC
0
EOF
